General
Unique ID : 204807201040803761135974095194236357750 (0x9A146EA0242B246D9162F971A03B8C76)
Complete name : Theevram - 2012 - MalayalaM - DVDRip - x264 - AC3 - 5.1 - ESubs - RockStar - Team QMR.mkv
Format : Matroska
Format version : Version 2
File size : 1.50 GiB
Duration : 2h 16mn
Overall bit rate : 1 573 Kbps
Encoded date : UTC 2013-01-28 22:12:18
Writing application : mkvmerge v5.8.0 ('No Sleep / Pillow') built on Sep 2 2012 15:37:04
Writing library : libebml v1.2.3 + libmatroska v1.3.0

Video
ID : 1
Format : AVC
Format/Info : Advanced Video Codec
Format profile : High@L3.0
Format settings, CABAC : Yes
Format settings, ReFrames : 4 frames
Codec ID : V_MPEG4/ISO/AVC
Duration : 2h 16mn
Bit rate : 1 251 Kbps
Width : 720 pixels
Height : 302 pixels
Display aspect ratio : 2.40:1
Frame rate mode : Constant
Frame rate : 25.000 fps
Color space : YUV
Chroma subsampling : 4:2:0
Bit depth : 8 bits
Scan type : Progressive
Bits/(Pixel*Frame) : 0.230
Stream size : 1.16 GiB (78%)
Writing library : x264 core 129 r2230 1cffe9f
Encoding settings : cabac=1 / ref=3 / deblock=1:1:0 / analyse=0x3:0x113 / me=hex / subme=7 / psy=1 / psy_rd=1.00:0.00 / mixed_ref=1 / me_range=16 / chroma_me=1 / trellis=1 / 8x8dct=1 / cqm=0 / deadzone=21,11 / fast_pskip=1 / chroma_qp_offset=-2 / threads=12 / lookahead_threads=2 / sliced_threads=0 / nr=0 / decimate=1 / interlaced=0 / bluray_compat=0 / constrained_intra=0 / bframes=3 / b_pyramid=2 / b_adapt=1 / b_bias=0 / direct=1 / weightb=1 / open_gop=0 / weightp=2 / keyint=250 / keyint_min=25 / scenecut=40 / intra_refresh=0 / rc_lookahead=40 / rc=2pass / mbtree=1 / bitrate=1251 / ratetol=1.0 / qcomp=0.60 / qpmin=10 / qpmax=51 / qpstep=4 / cplxblur=20.0 / qblur=0.5 / ip_ratio=1.40 / aq=1:1.00
Language : English
Default : Yes
Forced : No

Audio
ID : 2
Format : AC-3
Format/Info : Audio Coding 3
Mode extension : CM (complete main)
Format settings, Endianness : Big
Codec ID : A_AC3
Duration : 2h 16mn
Bit rate mode : Constant
Bit rate : 320 Kbps
Channel(s) : 6 channels
Channel positions : Front: L C R, Side: L R, LFE
Sampling rate : 48.0 KHz
Bit depth : 16 bits
Compression mode : Lossy
Stream size : 312 MiB (20%)
Default : Yes
Forced : No
 
http://www.shotpix.com/images/74032304740656485572.jpg 
http://www.shotpix.com/images/21321301159705401423.jpg 
http://www.shotpix.com/images/29719257619354555533.png 
http://www.shotpix.com/images/77076650397468823506.png 
http://www.shotpix.com/images/82479923108507576831.png 
http://www.shotpix.com/images/73738372780767228025.png



Thanks To Rockstar